<svg width="300" height="79" viewBox="0 0 300 79" fill="none" xmlns="http://www.w3.org/2000/svg">
<g clip-path="url(#clip0_34_20)">
<path d="M137.735 22.174H150.54V76.147H137.735L137.156 70.21C133.066 75.2029 127.197 77.9462 120.127 77.9462C103.677 77.9462 94.1616 63.3285 94.1616 49.2054C94.1616 33.3734 105.188 20.3749 120.261 20.3749C127.108 20.3749 133.022 22.9835 137.156 28.021L137.735 22.174ZM122.484 64.093C130.62 64.093 136.846 57.8861 136.846 49.0706C136.846 39.8501 129.998 34.2279 122.484 34.2279C114.214 34.2279 107.856 41.0646 107.856 49.0255C107.856 56.5819 113.547 64.093 122.484 64.093ZM177.165 15.6522C172.896 15.6522 169.428 12.144 169.428 7.8261C169.428 3.50825 172.896 0 177.165 0C181.433 0 184.902 3.50825 184.902 7.8261C184.902 12.144 181.433 15.6522 177.165 15.6522ZM170.318 76.147V22.174H184.012V76.147H170.318ZM199.7 76.147L218.241 47.9461L200.99 22.174H216.729L226.199 36.5667L235.626 22.174H251.365L234.07 47.9011L252.655 76.147H236.871L226.156 59.7303L215.484 76.147H199.7ZM281.015 29.4153C286.217 22.6238 293.552 19.9701 300 19.9251L297.777 35.1275C297.244 35.0825 296.62 35.0825 295.999 35.0825C289.996 35.0825 281.193 37.4213 281.193 53.7033V76.147H267.499V22.174H280.303L281.015 29.4153Z" fill="#162C3A"/>
<path fill-rule="evenodd" clip-rule="evenodd" d="M0 1.41079C0 0.631634 0.631573 0 1.41066 0H25.848C26.6271 0 27.2586 0.631632 27.2586 1.41079V20.7694L27.2727 20.7835V21.7497C27.2727 23.8274 28.9569 25.5118 31.0345 25.5118H39.8511H41.732H57.837C59.9145 25.5118 61.5987 23.8274 61.5987 21.7497V20.6709L61.604 20.6656V8.99301C61.604 8.21386 62.2357 7.58222 63.0147 7.58222H79.8196C80.5987 7.58222 81.2303 8.21386 81.2303 8.99301V25.6686C81.2303 26.4477 80.5987 27.0794 79.8196 27.0794H78.2493C78.0712 27.0535 77.889 27.0401 77.7038 27.0401H67.0063C64.9287 27.0401 63.2445 28.7245 63.2445 30.8023V31.6554L63.2406 31.6593V61.4135C63.2406 62.1926 62.609 62.8242 61.83 62.8242H42.3095C42.1212 62.7952 41.9284 62.7802 41.732 62.7802H31.0345C28.9569 62.7802 27.2727 64.4645 27.2727 66.5423V67.3911L27.2583 67.4054V76.5779C27.2583 77.3572 26.6268 77.9887 25.8476 77.9887H11.7685C10.9895 77.9887 10.3579 77.3572 10.3579 76.5779V62.6103C10.3579 61.9634 10.7932 61.4184 11.3867 61.2518H21.8652C23.9428 61.2518 25.627 59.5674 25.627 57.4897V46.6736C25.627 46.621 25.6259 46.5685 25.6238 46.5163V41.6581C25.6259 41.6059 25.627 41.5534 25.627 41.5007V30.8023C25.627 28.7245 23.9428 27.0401 21.8652 27.0401H11.1677C10.9824 27.0401 10.8002 27.0535 10.622 27.0794H1.41066C0.631575 27.0794 0 26.4478 0 25.6686V1.41079Z" fill="#E64848"/>
</g>
<defs>
<clipPath id="clip0_34_20">
<rect width="300" height="78.0637" fill="white"/>
</clipPath>
</defs>
</svg>
