<svg width="5959" height="1550" viewBox="0 0 5959 1550" fill="none" xmlns="http://www.w3.org/2000/svg">
<g clip-path="url(#clip0_73_39)">
<path d="M2735.86 440.277H2990.22V1511.94H2735.86L2724.38 1394.06C2643.14 1493.2 2526.55 1547.67 2386.12 1547.67C2059.36 1547.67 1870.36 1257.42 1870.36 977.002C1870.36 662.648 2089.39 404.555 2388.79 404.555C2524.78 404.555 2642.25 456.351 2724.38 556.373L2735.86 440.277ZM2432.94 1272.6C2594.55 1272.6 2718.21 1149.36 2718.21 974.324C2718.21 791.247 2582.2 679.614 2432.94 679.614C2268.67 679.614 2142.38 815.361 2142.38 973.43C2142.38 1123.47 2255.42 1272.6 2432.94 1272.6ZM3519.08 310.784C3434.3 310.784 3365.41 241.125 3365.41 155.392C3365.41 69.6583 3434.3 0 3519.08 0C3603.87 0 3672.77 69.6583 3672.77 155.392C3672.77 241.125 3603.87 310.784 3519.08 310.784ZM3383.09 1511.94V440.277H3655.1V1511.94H3383.09ZM3966.71 1511.94L4334.99 951.996L3992.32 440.277H4304.96L4493.07 726.054L4680.31 440.277H4992.95L4649.4 951.105L5018.57 1511.94H4705.04L4492.2 1185.98L4280.23 1511.94H3966.71ZM5581.89 584.058C5685.22 449.208 5830.93 396.518 5959 395.623L5914.85 697.477C5904.25 696.583 5891.87 696.583 5879.52 696.583C5760.29 696.583 5585.42 743.022 5585.42 1066.31V1511.94H5313.41V440.277H5567.74L5581.89 584.058Z" fill="white"/>
<path fill-rule="evenodd" clip-rule="evenodd" d="M0 28.012C0 12.5415 12.5451 0 28.0204 0H513.427C528.903 0 541.447 12.5414 541.447 28.012V412.389L541.727 412.669V431.852C541.727 473.107 575.181 506.551 616.448 506.551H791.576H828.936H1148.84C1190.1 506.551 1223.56 473.107 1223.56 431.852V410.433L1223.66 410.327V178.561C1223.66 163.091 1236.21 150.549 1251.68 150.549H1585.48C1600.96 150.549 1613.5 163.091 1613.5 178.561V509.665C1613.5 525.135 1600.96 537.677 1585.48 537.677H1554.29C1550.75 537.164 1547.14 536.898 1543.46 536.898H1330.97C1289.7 536.898 1256.25 570.342 1256.25 611.596V628.537L1256.17 628.614V1219.4C1256.17 1234.87 1243.62 1247.41 1228.15 1247.41H840.408C836.667 1246.83 832.838 1246.54 828.936 1246.54H616.448C575.181 1246.54 541.727 1279.98 541.727 1321.23V1338.09L541.44 1338.37V1520.5C541.44 1535.97 528.896 1548.51 513.42 1548.51H233.762C218.288 1548.51 205.743 1535.97 205.743 1520.5V1243.16C205.743 1230.32 214.388 1219.5 226.179 1216.19H434.316C475.583 1216.19 509.037 1182.75 509.037 1141.49V926.732C509.037 925.686 509.016 924.645 508.974 923.609V827.144C509.016 826.108 509.037 825.067 509.037 824.021V611.596C509.037 570.342 475.583 536.898 434.316 536.898H221.828C218.147 536.898 214.528 537.164 210.989 537.677H28.0204C12.5452 537.677 0 525.137 0 509.665V28.012Z" fill="#E64848"/>
</g>
<defs>
<clipPath id="clip0_73_39">
<rect width="5959" height="1550" fill="white"/>
</clipPath>
</defs>
</svg>
