<svg width="486" height="247" viewBox="0 0 486 247" fill="none" xmlns="http://www.w3.org/2000/svg">
<g filter="url(#filter0_d_73_38)">
<rect x="19" y="38" width="360.644" height="188.645" rx="5.54837" fill="white" shape-rendering="crispEdges"/>
<rect x="19.4624" y="38.4624" width="359.719" height="187.72" rx="5.08601" stroke="#F2F2F2" stroke-width="0.924729" shape-rendering="crispEdges"/>
<path d="M355.993 83.6269L40.9932 83.627" stroke="#E5E5E5" stroke-width="0.924729" stroke-linecap="square"/>
<path d="M355.993 102.46L40.9932 102.46" stroke="#E5E5E5" stroke-width="0.924729" stroke-linecap="square"/>
<path d="M355.993 121.294L40.9932 121.294" stroke="#E5E5E5" stroke-width="0.924729" stroke-linecap="square"/>
<path d="M355.993 140.127L40.9932 140.127" stroke="#E5E5E5" stroke-width="0.924729" stroke-linecap="square"/>
<path d="M355.993 158.96L40.9932 158.96" stroke="#E5E5E5" stroke-width="0.924729" stroke-linecap="square"/>
<path d="M355.993 177.794L40.9932 177.794" stroke="#E5E5E5" stroke-width="0.924729" stroke-linecap="square"/>
<path d="M355.993 196.627L40.9932 196.627" stroke="#E5E5E5" stroke-width="0.924729" stroke-linecap="square"/>
<rect x="55" y="159" width="26" height="38" fill="url(#paint0_linear_73_38)"/>
<rect x="98" y="140" width="26" height="57" fill="url(#paint1_linear_73_38)"/>
<rect x="141" y="131" width="26" height="66" fill="url(#paint2_linear_73_38)"/>
<rect x="184" y="131" width="26" height="66" fill="url(#paint3_linear_73_38)"/>
<rect x="227" y="102" width="26" height="95" fill="url(#paint4_linear_73_38)"/>
<rect x="270" y="94" width="26" height="103" fill="url(#paint5_linear_73_38)"/>
<rect x="313" y="84" width="26" height="113" fill="url(#paint6_linear_73_38)"/>
<path fill-rule="evenodd" clip-rule="evenodd" d="M339.736 54.1318L328.148 47.7788C327.436 47.389 326.531 47.674 326.124 48.4154C325.718 49.1568 325.965 50.0739 326.676 50.4637L334.942 54.9952C335.022 55.0393 335.01 55.1583 334.923 55.1858V55.1858C334.869 55.2025 334.839 55.2583 334.853 55.3121L335.581 58.0145C335.596 58.0679 335.652 58.0987 335.705 58.0821V58.0821C335.788 58.0557 335.861 58.1449 335.819 58.2218L331.089 66.8505C330.682 67.5919 330.929 68.5089 331.64 68.8988C332.352 69.2886 333.257 69.0037 333.664 68.2622L340.288 56.1801C340.694 55.4387 340.447 54.5217 339.736 54.1318ZM208.6 98.0746C208.599 98.0702 208.602 98.0659 208.606 98.0645L209.645 97.7375C210.284 97.5367 210.65 96.8684 210.476 96.2223L210.414 95.9903C210.192 95.1674 209.33 94.6946 208.517 94.9504L207.697 95.2082L205.705 95.6223C204.911 95.7874 204.392 96.5542 204.534 97.3529L204.602 97.7382C204.713 98.3592 205.315 98.7663 205.932 98.6379L206.896 98.4376C206.935 98.4294 206.974 98.4533 206.984 98.492V98.492C206.996 98.5335 207.039 98.5574 207.08 98.5445L208.441 98.1166L208.593 98.0849C208.598 98.0839 208.601 98.0794 208.6 98.0746V98.0746ZM212.272 95.2746C212.494 96.0975 213.356 96.5702 214.169 96.3145L218.872 94.835C219.639 94.5939 220.079 93.7914 219.87 93.0156V93.0156C219.648 92.1927 218.786 91.72 217.973 91.9757L213.27 93.4552C212.503 93.6963 212.063 94.4988 212.272 95.2746V95.2746ZM221.728 92.2999C221.95 93.1228 222.812 93.5955 223.625 93.3398L228.328 91.8603C229.095 91.6192 229.535 90.8167 229.326 90.0409V90.0409C229.104 89.218 228.242 88.7453 227.429 89.001L222.726 90.4805C221.959 90.7216 221.519 91.5241 221.728 92.2999V92.2999ZM231.184 89.3252C231.406 90.1481 232.268 90.6208 233.081 90.3651L237.784 88.8856C238.551 88.6445 238.991 87.842 238.782 87.0662V87.0662C238.56 86.2433 237.698 85.7706 236.885 86.0263L232.182 87.5058C231.415 87.7469 230.976 88.5494 231.184 89.3252V89.3252ZM240.641 86.3505C240.862 87.1734 241.724 87.6462 242.537 87.3904L247.24 85.9109C248.007 85.6698 248.447 84.8673 248.238 84.0916V84.0916C248.016 83.2687 247.154 82.7959 246.341 83.0517L241.638 84.5312C240.872 84.7723 240.432 85.5748 240.641 86.3505V86.3505ZM250.097 83.3758C250.318 84.1988 251.181 84.6715 251.993 84.4157L256.697 82.9362C257.463 82.6952 257.903 81.8926 257.694 81.1169V81.1169C257.472 80.294 256.61 79.8213 255.797 80.077L251.094 81.5565C250.328 81.7976 249.888 82.6001 250.097 83.3758V83.3758ZM259.553 80.4012C259.774 81.2241 260.637 81.6968 261.45 81.4411L266.153 79.9616C266.919 79.7205 267.359 78.918 267.15 78.1422V78.1422C266.928 77.3193 266.066 76.8466 265.253 77.1023L260.55 78.5818C259.784 78.8229 259.344 79.6254 259.553 80.4012V80.4012ZM269.009 77.4265C269.23 78.2494 270.093 78.7221 270.906 78.4664L275.609 76.9869C276.375 76.7458 276.815 75.9433 276.606 75.1675V75.1675C276.385 74.3446 275.522 73.8719 274.709 74.1276L270.006 75.6071C269.24 75.8482 268.8 76.6507 269.009 77.4265V77.4265ZM278.465 74.4518C278.686 75.2747 279.549 75.7474 280.362 75.4917L285.065 74.0122C285.831 73.7711 286.271 72.9686 286.062 72.1929V72.1929C285.841 71.37 284.978 70.8972 284.165 71.153L279.462 72.6325C278.696 72.8735 278.256 73.676 278.465 74.4518V74.4518ZM287.921 71.4771C288.143 72.3 289.005 72.7728 289.818 72.517L294.521 71.0375C295.287 70.7964 295.727 69.9939 295.518 69.2182V69.2182C295.297 68.3953 294.434 67.9225 293.621 68.1783L288.918 69.6578C288.152 69.8989 287.712 70.7014 287.921 71.4771V71.4771ZM297.377 68.5025C297.599 69.3254 298.461 69.7981 299.274 69.5424L303.977 68.0629C304.743 67.8218 305.183 67.0193 304.974 66.2435V66.2435C304.753 65.4206 303.89 64.9479 303.078 65.2036L298.374 66.6831C297.608 66.9242 297.168 67.7267 297.377 68.5025V68.5025ZM306.833 65.5278C307.055 66.3507 307.917 66.8234 308.73 66.5677L313.433 65.0882C314.199 64.8471 314.639 64.0446 314.43 63.2688V63.2688C314.209 62.4459 313.347 61.9732 312.534 62.2289L307.83 63.7084C307.064 63.9495 306.624 64.752 306.833 65.5278V65.5278ZM316.289 62.5531C316.511 63.376 317.373 63.8487 318.186 63.593L322.889 62.1135C323.655 61.8724 324.095 61.0699 323.887 60.2941V60.2941C323.665 59.4712 322.803 58.9985 321.99 59.2542L317.287 60.7337C316.52 60.9748 316.08 61.7773 316.289 62.5531V62.5531ZM325.745 59.5784C325.967 60.4013 326.829 60.8741 327.642 60.6183L332.345 59.1388C333.112 58.8977 333.552 58.0952 333.343 57.3195V57.3195C333.121 56.4966 332.259 56.0238 331.446 56.2796L326.743 57.7591C325.976 58.0002 325.536 58.8027 325.745 59.5784V59.5784ZM101.484 120.08C101.909 120.836 102.885 121.073 103.61 120.597L104.833 119.794C105.043 119.655 105.278 119.558 105.524 119.507L106.554 119.293C107.348 119.128 107.867 118.361 107.725 117.562V117.562C107.577 116.73 106.771 116.185 105.944 116.357L105.877 116.371C105.596 116.429 105.305 116.388 105.018 116.382C104.746 116.377 104.466 116.454 104.213 116.62V116.62C104.071 116.713 103.912 116.779 103.745 116.814L103.658 116.832C103.338 116.899 103.06 117.063 102.849 117.288C102.629 117.525 102.43 117.791 102.16 117.969L101.967 118.096C101.309 118.528 101.099 119.394 101.484 120.08V120.08ZM117.218 115.589C117.36 116.388 116.841 117.155 116.047 117.32L111.39 118.288C110.563 118.46 109.757 117.914 109.609 117.083V117.083C109.466 116.284 109.985 115.517 110.78 115.352L115.436 114.384C116.264 114.212 117.07 114.757 117.218 115.589V115.589ZM126.71 113.616C126.852 114.415 126.334 115.182 125.539 115.347L120.882 116.315C120.055 116.487 119.249 115.942 119.101 115.11V115.11C118.959 114.311 119.478 113.544 120.272 113.379L124.929 112.411C125.756 112.239 126.562 112.784 126.71 113.616V113.616ZM136.203 111.643C136.345 112.442 135.826 113.209 135.032 113.374L130.375 114.342C129.548 114.514 128.742 113.969 128.594 113.137V113.137C128.452 112.338 128.97 111.571 129.765 111.406L134.422 110.438C135.249 110.266 136.055 110.811 136.203 111.643V111.643ZM145.695 109.67C145.838 110.469 145.319 111.236 144.524 111.401L139.868 112.369C139.04 112.541 138.234 111.996 138.086 111.164V111.164C137.944 110.365 138.463 109.598 139.257 109.433L143.914 108.465C144.741 108.293 145.547 108.838 145.695 109.67V109.67ZM155.188 107.697C155.33 108.496 154.811 109.263 154.017 109.428L149.36 110.396C148.533 110.568 147.727 110.023 147.579 109.191V109.191C147.437 108.392 147.956 107.625 148.75 107.46L153.407 106.492C154.234 106.32 155.04 106.866 155.188 107.697V107.697ZM164.68 105.725C164.823 106.523 164.304 107.29 163.509 107.455L158.853 108.423C158.025 108.595 157.219 108.05 157.071 107.218V107.218C156.929 106.419 157.448 105.652 158.242 105.487L162.899 104.519C163.726 104.347 164.532 104.893 164.68 105.725V105.725ZM174.173 103.752C174.315 104.55 173.796 105.317 173.002 105.482L168.345 106.45C167.518 106.622 166.712 106.077 166.564 105.245V105.245C166.422 104.446 166.941 103.679 167.735 103.514L172.392 102.546C173.219 102.374 174.025 102.92 174.173 103.752V103.752ZM183.666 101.779C183.808 102.577 183.289 103.344 182.494 103.509L177.838 104.477C177.01 104.649 176.204 104.104 176.056 103.272V103.272C175.914 102.473 176.433 101.706 177.227 101.541L181.884 100.573C182.712 100.401 183.517 100.947 183.666 101.779V101.779ZM193.158 99.8056C193.3 100.604 192.781 101.371 191.987 101.536L187.33 102.504C186.503 102.676 185.697 102.131 185.549 101.299V101.299C185.407 100.5 185.926 99.7333 186.72 99.5682L191.377 98.6003C192.204 98.4284 193.01 98.9737 193.158 99.8056V99.8056ZM202.651 97.8327C202.793 98.6314 202.274 99.3983 201.479 99.5634L196.823 100.531C195.995 100.703 195.189 100.158 195.041 99.3259V99.3259C194.899 98.5272 195.418 97.7603 196.212 97.5952L200.869 96.6273C201.697 96.4554 202.503 97.0007 202.651 97.8327V97.8327ZM57.2077 149.414C57.5933 150.099 57.3824 150.966 56.7251 151.398L55.8187 151.993C55.0941 152.47 54.1178 152.232 53.6928 151.476V151.476C53.3073 150.791 53.5182 149.924 54.1755 149.492L55.0818 148.897C55.8064 148.421 56.7827 148.658 57.2077 149.414V149.414ZM65.7419 143.807C66.1274 144.493 65.9165 145.36 65.2592 145.792L60.9392 148.63C60.2146 149.106 59.2383 148.868 58.8133 148.112V148.112C58.4278 147.427 58.6386 146.56 59.296 146.128L63.6159 143.29C64.3406 142.814 65.3169 143.052 65.7419 143.807V143.807ZM74.276 138.201C74.6616 138.886 74.4507 139.753 73.7934 140.185L69.4734 143.023C68.7487 143.499 67.7725 143.262 67.3474 142.506V142.506C66.9619 141.82 67.1728 140.954 67.8301 140.522L72.1501 137.684C72.8747 137.208 73.851 137.445 74.276 138.201V138.201ZM82.8102 132.594C83.1957 133.28 82.9848 134.147 82.3275 134.579L78.0075 137.417C77.2829 137.893 76.3066 137.655 75.8816 136.899V136.899C75.4961 136.214 75.7069 135.347 76.3643 134.915L80.6842 132.077C81.4089 131.601 82.3852 131.839 82.8102 132.594V132.594ZM91.3443 126.988C91.7299 127.673 91.519 128.54 90.8617 128.972L86.5417 131.81C85.817 132.286 84.8408 132.049 84.4157 131.293V131.293C84.0302 130.607 84.2411 129.741 84.8984 129.309L89.2184 126.471C89.943 125.995 90.9193 126.232 91.3443 126.988V126.988ZM99.8785 121.381C100.264 122.067 100.053 122.934 99.3958 123.366L95.0758 126.204C94.3512 126.68 93.3749 126.442 92.9499 125.686V125.686C92.5644 125.001 92.7752 124.134 93.4326 123.702L97.7525 120.864C98.4772 120.388 99.4535 120.626 99.8785 121.381V121.381Z" fill="#828282"/>
<g filter="url(#filter1_d_73_38)">
<g clip-path="url(#clip0_73_38)">
<rect x="356" y="65" width="100.157" height="38.4941" rx="19.247" fill="#E64848"/>
<g filter="url(#filter2_d_73_38)">
<path d="M381.272 78.0004V90.2471H379.424V78.0004H381.272ZM383.819 90.2471V81.0621H385.535V82.557H385.649C385.84 82.0507 386.153 81.6561 386.588 81.373C387.022 81.086 387.542 80.9425 388.148 80.9425C388.762 80.9425 389.277 81.086 389.691 81.373C390.11 81.6601 390.419 82.0547 390.618 82.557H390.714C390.933 82.0667 391.282 81.676 391.76 81.385C392.239 81.09 392.809 80.9425 393.47 80.9425C394.304 80.9425 394.983 81.2036 395.51 81.7258C396.04 82.2481 396.305 83.0354 396.305 84.0879V90.2471H394.517V84.2553C394.517 83.6334 394.347 83.1829 394.009 82.9039C393.67 82.6248 393.265 82.4853 392.795 82.4853C392.213 82.4853 391.76 82.6647 391.437 83.0235C391.114 83.3783 390.953 83.8347 390.953 84.3928V90.2471H389.171V84.1417C389.171 83.6434 389.015 83.2427 388.704 82.9397C388.394 82.6368 387.989 82.4853 387.491 82.4853C387.152 82.4853 386.839 82.575 386.552 82.7544C386.269 82.9298 386.039 83.175 385.864 83.4899C385.693 83.8048 385.607 84.1696 385.607 84.5842V90.2471H383.819ZM398.701 93.6914V81.0621H400.447V82.5511H400.597C400.7 82.3597 400.85 82.1385 401.045 81.8873C401.241 81.6361 401.512 81.4169 401.859 81.2295C402.205 81.0382 402.664 80.9425 403.234 80.9425C403.975 80.9425 404.637 81.1299 405.219 81.5046C405.801 81.8793 406.258 82.4195 406.589 83.1251C406.923 83.8307 407.091 84.6799 407.091 85.6725C407.091 86.6652 406.925 87.5163 406.595 88.2259C406.264 88.9315 405.809 89.4757 405.231 89.8584C404.653 90.2371 403.993 90.4265 403.252 90.4265C402.694 90.4265 402.237 90.3328 401.882 90.1454C401.532 89.958 401.257 89.7388 401.057 89.4876C400.858 89.2365 400.704 89.0132 400.597 88.8179H400.489V93.6914H398.701ZM400.453 85.6546C400.453 86.3004 400.547 86.8665 400.734 87.3528C400.922 87.8392 401.193 88.2199 401.548 88.495C401.902 88.7661 402.337 88.9016 402.851 88.9016C403.385 88.9016 403.832 88.7601 404.191 88.477C404.549 88.19 404.821 87.8013 405.004 87.311C405.191 86.8206 405.285 86.2685 405.285 85.6546C405.285 85.0486 405.193 84.5045 405.01 84.0221C404.831 83.5397 404.559 83.159 404.197 82.8799C403.838 82.6009 403.389 82.4614 402.851 82.4614C402.333 82.4614 401.894 82.5949 401.536 82.862C401.181 83.1291 400.912 83.5018 400.728 83.9802C400.545 84.4586 400.453 85.0167 400.453 85.6546ZM411.767 90.4504C411.185 90.4504 410.659 90.3427 410.188 90.1275C409.718 89.9082 409.345 89.5913 409.07 89.1767C408.799 88.7621 408.664 88.2538 408.664 87.6518C408.664 87.1336 408.763 86.707 408.963 86.3722C409.162 86.0373 409.431 85.7722 409.77 85.5768C410.109 85.3815 410.487 85.234 410.906 85.1343C411.325 85.0347 411.751 84.9589 412.186 84.9071C412.736 84.8433 413.182 84.7915 413.525 84.7516C413.868 84.7078 414.117 84.638 414.273 84.5423C414.428 84.4467 414.506 84.2912 414.506 84.0759V84.034C414.506 83.5118 414.358 83.1072 414.063 82.8201C413.772 82.5331 413.338 82.3896 412.76 82.3896C412.158 82.3896 411.683 82.5232 411.337 82.7903C410.994 83.0534 410.757 83.3464 410.625 83.6693L408.945 83.2866C409.144 82.7285 409.435 82.278 409.818 81.9351C410.204 81.5883 410.649 81.3372 411.151 81.1817C411.653 81.0222 412.182 80.9425 412.736 80.9425C413.103 80.9425 413.491 80.9863 413.902 81.074C414.317 81.1578 414.703 81.3132 415.062 81.5405C415.425 81.7677 415.722 82.0926 415.953 82.5152C416.184 82.9338 416.3 83.4779 416.3 84.1477V90.2471H414.554V88.9913H414.482C414.366 89.2225 414.193 89.4498 413.962 89.673C413.73 89.8963 413.433 90.0816 413.071 90.2291C412.708 90.3766 412.273 90.4504 411.767 90.4504ZM412.156 89.0152C412.65 89.0152 413.073 88.9176 413.424 88.7222C413.778 88.5269 414.047 88.2717 414.231 87.9568C414.418 87.6379 414.512 87.297 414.512 86.9343V85.7503C414.448 85.814 414.324 85.8738 414.141 85.9296C413.962 85.9815 413.756 86.0273 413.525 86.0672C413.294 86.1031 413.069 86.1369 412.849 86.1688C412.63 86.1967 412.447 86.2207 412.299 86.2406C411.952 86.2845 411.636 86.3582 411.349 86.4619C411.065 86.5655 410.838 86.715 410.667 86.9103C410.499 87.1017 410.416 87.3568 410.416 87.6758C410.416 88.1183 410.579 88.4531 410.906 88.6804C411.233 88.9036 411.65 89.0152 412.156 89.0152ZM422.55 90.4324C421.661 90.4324 420.896 90.2311 420.254 89.8285C419.616 89.4219 419.126 88.8617 418.783 88.1482C418.44 87.4346 418.269 86.6173 418.269 85.6964C418.269 84.7636 418.444 83.9404 418.795 83.2268C419.146 82.5092 419.64 81.9491 420.278 81.5464C420.916 81.1438 421.667 80.9425 422.532 80.9425C423.23 80.9425 423.852 81.0721 424.398 81.3312C424.944 81.5863 425.385 81.9451 425.719 82.4075C426.058 82.87 426.26 83.4102 426.323 84.0281H424.583C424.488 83.5975 424.268 83.2268 423.926 82.9158C423.587 82.6049 423.132 82.4494 422.562 82.4494C422.064 82.4494 421.627 82.581 421.253 82.8441C420.882 83.1032 420.593 83.4739 420.386 83.9563C420.178 84.4347 420.075 85.0008 420.075 85.6546C420.075 86.3243 420.176 86.9024 420.38 87.3887C420.583 87.8751 420.87 88.2518 421.241 88.5189C421.615 88.786 422.056 88.9196 422.562 88.9196C422.901 88.9196 423.208 88.8578 423.483 88.7342C423.762 88.6066 423.995 88.4252 424.183 88.19C424.374 87.9548 424.508 87.6718 424.583 87.3409H426.323C426.26 87.9349 426.066 88.4651 425.743 88.9315C425.421 89.3979 424.988 89.7647 424.446 90.0318C423.908 90.2989 423.276 90.4324 422.55 90.4324ZM432.523 81.0621V82.4972H427.506V81.0621H432.523ZM428.851 78.8615H430.639V87.5502C430.639 87.897 430.691 88.1581 430.795 88.3335C430.899 88.505 431.032 88.6226 431.196 88.6863C431.363 88.7461 431.544 88.776 431.74 88.776C431.883 88.776 432.009 88.7661 432.116 88.7461C432.224 88.7262 432.308 88.7103 432.368 88.6983L432.69 90.1753C432.587 90.2152 432.439 90.255 432.248 90.2949C432.057 90.3388 431.817 90.3627 431.53 90.3667C431.06 90.3746 430.621 90.2909 430.215 90.1155C429.808 89.9401 429.479 89.669 429.228 89.3023C428.977 88.9355 428.851 88.4751 428.851 87.9209V78.8615Z" fill="white"/>
</g>
</g>
</g>
</g>
<g filter="url(#filter3_d_73_38)">
<g clip-path="url(#clip1_73_38)">
<rect x="291" width="104.157" height="38.4941" rx="19.247" fill="#E64848"/>
<g filter="url(#filter4_d_73_38)">
<path d="M322.712 16.8694C322.596 16.5066 322.441 16.1817 322.245 15.8947C322.054 15.6036 321.825 15.3565 321.558 15.1532C321.291 14.9459 320.986 14.7884 320.643 14.6808C320.304 14.5731 319.931 14.5193 319.525 14.5193C318.835 14.5193 318.213 14.6967 317.659 15.0515C317.105 15.4063 316.666 15.9265 316.343 16.6122C316.024 17.2939 315.865 18.1291 315.865 19.1178C315.865 20.1104 316.026 20.9496 316.349 21.6353C316.672 22.321 317.115 22.8412 317.677 23.196C318.239 23.5508 318.879 23.7282 319.596 23.7282C320.262 23.7282 320.842 23.5927 321.336 23.3216C321.835 23.0505 322.22 22.6678 322.491 22.1734C322.766 21.6751 322.903 21.0891 322.903 20.4154L323.382 20.5051H319.877V18.9802H324.691V20.3735C324.691 21.4021 324.472 22.295 324.033 23.0525C323.599 23.8059 322.997 24.388 322.227 24.7986C321.462 25.2092 320.585 25.4145 319.596 25.4145C318.488 25.4145 317.515 25.1594 316.678 24.6491C315.845 24.1388 315.195 23.4153 314.729 22.4784C314.262 21.5376 314.029 20.4214 314.029 19.1297C314.029 18.153 314.165 17.276 314.436 16.4986C314.707 15.7212 315.088 15.0615 315.578 14.5193C316.072 13.9731 316.652 13.5565 317.318 13.2695C317.988 12.9785 318.719 12.833 319.513 12.833C320.174 12.833 320.79 12.9307 321.36 13.126C321.934 13.3213 322.445 13.5984 322.891 13.9572C323.342 14.316 323.714 14.7425 324.009 15.2369C324.304 15.7272 324.504 16.2714 324.607 16.8694H322.712ZM326.893 25.2471V16.0621H328.621V17.5212H328.717C328.884 17.0268 329.179 16.6381 329.602 16.3551C330.029 16.0681 330.511 15.9245 331.049 15.9245C331.161 15.9245 331.292 15.9285 331.444 15.9365C331.599 15.9445 331.721 15.9544 331.809 15.9664V17.6766C331.737 17.6567 331.609 17.6348 331.426 17.6109C331.243 17.5829 331.059 17.569 330.876 17.569C330.453 17.569 330.076 17.6587 329.746 17.8381C329.419 18.0135 329.16 18.2587 328.968 18.5736C328.777 18.8846 328.681 19.2394 328.681 19.638V25.2471H326.893ZM336.896 25.4324C336.035 25.4324 335.283 25.2351 334.642 24.8404C334 24.4458 333.501 23.8936 333.147 23.184C332.792 22.4744 332.614 21.6452 332.614 20.6964C332.614 19.7437 332.792 18.9105 333.147 18.1969C333.501 17.4833 334 16.9292 334.642 16.5345C335.283 16.1398 336.035 15.9425 336.896 15.9425C337.757 15.9425 338.508 16.1398 339.15 16.5345C339.792 16.9292 340.29 17.4833 340.645 18.1969C341 18.9105 341.177 19.7437 341.177 20.6964C341.177 21.6452 341 22.4744 340.645 23.184C340.29 23.8936 339.792 24.4458 339.15 24.8404C338.508 25.2351 337.757 25.4324 336.896 25.4324ZM336.902 23.9315C337.46 23.9315 337.922 23.784 338.289 23.489C338.656 23.194 338.927 22.8013 339.102 22.311C339.282 21.8206 339.372 21.2805 339.372 20.6905C339.372 20.1044 339.282 19.5663 339.102 19.0759C338.927 18.5816 338.656 18.1849 338.289 17.8859C337.922 17.5869 337.46 17.4374 336.902 17.4374C336.34 17.4374 335.873 17.5869 335.503 17.8859C335.136 18.1849 334.863 18.5816 334.683 19.0759C334.508 19.5663 334.42 20.1044 334.42 20.6905C334.42 21.2805 334.508 21.8206 334.683 22.311C334.863 22.8013 335.136 23.194 335.503 23.489C335.873 23.784 336.34 23.9315 336.902 23.9315ZM344.885 25.2471L342.182 16.0621H344.03L345.83 22.8073H345.919L347.725 16.0621H349.573L351.367 22.7774H351.457L353.245 16.0621H355.092L352.396 25.2471H350.572L348.706 18.6155H348.569L346.703 25.2471H344.885ZM361.077 16.0621V17.4972H356.06V16.0621H361.077ZM357.405 13.8615H359.193V22.5502C359.193 22.897 359.245 23.1581 359.349 23.3335C359.452 23.505 359.586 23.6226 359.749 23.6863C359.917 23.7461 360.098 23.776 360.293 23.776C360.437 23.776 360.563 23.7661 360.67 23.7461C360.778 23.7262 360.862 23.7103 360.921 23.6983L361.244 25.1753C361.141 25.2152 360.993 25.255 360.802 25.2949C360.61 25.3388 360.371 25.3627 360.084 25.3667C359.614 25.3746 359.175 25.2909 358.769 25.1155C358.362 24.9401 358.033 24.669 357.782 24.3023C357.531 23.9355 357.405 23.4751 357.405 22.9209V13.8615ZM365.04 19.7935V25.2471H363.252V13.0004H365.016V17.557H365.13C365.345 17.0627 365.674 16.67 366.116 16.379C366.559 16.088 367.137 15.9425 367.85 15.9425C368.48 15.9425 369.03 16.0721 369.501 16.3312C369.975 16.5903 370.342 16.977 370.601 17.4913C370.864 18.0015 370.996 18.6394 370.996 19.4048V25.2471H369.208V19.6201C369.208 18.9463 369.034 18.4241 368.688 18.0534C368.341 17.6786 367.858 17.4913 367.24 17.4913C366.818 17.4913 366.439 17.581 366.104 17.7604C365.773 17.9397 365.512 18.2029 365.321 18.5497C365.134 18.8925 365.04 19.3071 365.04 19.7935Z" fill="white"/>
</g>
</g>
</g>
<defs>
<filter id="filter0_d_73_38" x="0.505426" y="19.5054" width="475.995" height="227.483" filterUnits="userSpaceOnUse" color-interpolation-filters="sRGB">
<feFlood flood-opacity="0" result="BackgroundImageFix"/>
<feColorMatrix in="SourceAlpha" type="matrix" values="0 0 0 0 0 0 0 0 0 0 0 0 0 0 0 0 0 0 127 0" result="hardAlpha"/>
<feMorphology radius="1.84946" operator="dilate" in="SourceAlpha" result="effect1_dropShadow_73_38"/>
<feOffset dx="0.924729" dy="0.924729"/>
<feGaussianBlur stdDeviation="8.78492"/>
<feComposite in2="hardAlpha" operator="out"/>
<feColorMatrix type="matrix" values="0 0 0 0 0 0 0 0 0 0 0 0 0 0 0 0 0 0 0.06 0"/>
<feBlend mode="normal" in2="BackgroundImageFix" result="effect1_dropShadow_73_38"/>
<feBlend mode="normal" in="SourceGraphic" in2="effect1_dropShadow_73_38" result="shape"/>
</filter>
<filter id="filter1_d_73_38" x="356" y="65" width="129.382" height="67.7196" filterUnits="userSpaceOnUse" color-interpolation-filters="sRGB">
<feFlood flood-opacity="0" result="BackgroundImageFix"/>
<feColorMatrix in="SourceAlpha" type="matrix" values="0 0 0 0 0 0 0 0 0 0 0 0 0 0 0 0 0 0 127 0" result="hardAlpha"/>
<feMorphology radius="4.49623" operator="erode" in="SourceAlpha" result="effect1_dropShadow_73_38"/>
<feOffset dx="15.7368" dy="15.7368"/>
<feGaussianBlur stdDeviation="8.99246"/>
<feComposite in2="hardAlpha" operator="out"/>
<feColorMatrix type="matrix" values="0 0 0 0 0 0 0 0 0 0 0 0 0 0 0 0 0 0 0.1 0"/>
<feBlend mode="normal" in2="BackgroundImageFix" result="effect1_dropShadow_73_38"/>
<feBlend mode="normal" in="SourceGraphic" in2="effect1_dropShadow_73_38" result="shape"/>
</filter>
<filter id="filter2_d_73_38" x="379.424" y="78.0005" width="82.4921" height="44.9164" filterUnits="userSpaceOnUse" color-interpolation-filters="sRGB">
<feFlood flood-opacity="0" result="BackgroundImageFix"/>
<feColorMatrix in="SourceAlpha" type="matrix" values="0 0 0 0 0 0 0 0 0 0 0 0 0 0 0 0 0 0 127 0" result="hardAlpha"/>
<feMorphology radius="4.49623" operator="erode" in="SourceAlpha" result="effect1_dropShadow_73_38"/>
<feOffset dx="15.7368" dy="15.7368"/>
<feGaussianBlur stdDeviation="8.99246"/>
<feComposite in2="hardAlpha" operator="out"/>
<feColorMatrix type="matrix" values="0 0 0 0 0 0 0 0 0 0 0 0 0 0 0 0 0 0 0.1 0"/>
<feBlend mode="normal" in2="BackgroundImageFix" result="effect1_dropShadow_73_38"/>
<feBlend mode="normal" in="SourceGraphic" in2="effect1_dropShadow_73_38" result="shape"/>
</filter>
<filter id="filter3_d_73_38" x="291" y="0" width="133.382" height="67.7196" filterUnits="userSpaceOnUse" color-interpolation-filters="sRGB">
<feFlood flood-opacity="0" result="BackgroundImageFix"/>
<feColorMatrix in="SourceAlpha" type="matrix" values="0 0 0 0 0 0 0 0 0 0 0 0 0 0 0 0 0 0 127 0" result="hardAlpha"/>
<feMorphology radius="4.49623" operator="erode" in="SourceAlpha" result="effect1_dropShadow_73_38"/>
<feOffset dx="15.7368" dy="15.7368"/>
<feGaussianBlur stdDeviation="8.99246"/>
<feComposite in2="hardAlpha" operator="out"/>
<feColorMatrix type="matrix" values="0 0 0 0 0 0 0 0 0 0 0 0 0 0 0 0 0 0 0.1 0"/>
<feBlend mode="normal" in2="BackgroundImageFix" result="effect1_dropShadow_73_38"/>
<feBlend mode="normal" in="SourceGraphic" in2="effect1_dropShadow_73_38" result="shape"/>
</filter>
<filter id="filter4_d_73_38" x="314.029" y="12.833" width="86.1922" height="41.8249" filterUnits="userSpaceOnUse" color-interpolation-filters="sRGB">
<feFlood flood-opacity="0" result="BackgroundImageFix"/>
<feColorMatrix in="SourceAlpha" type="matrix" values="0 0 0 0 0 0 0 0 0 0 0 0 0 0 0 0 0 0 127 0" result="hardAlpha"/>
<feMorphology radius="4.49623" operator="erode" in="SourceAlpha" result="effect1_dropShadow_73_38"/>
<feOffset dx="15.7368" dy="15.7368"/>
<feGaussianBlur stdDeviation="8.99246"/>
<feComposite in2="hardAlpha" operator="out"/>
<feColorMatrix type="matrix" values="0 0 0 0 0 0 0 0 0 0 0 0 0 0 0 0 0 0 0.1 0"/>
<feBlend mode="normal" in2="BackgroundImageFix" result="effect1_dropShadow_73_38"/>
<feBlend mode="normal" in="SourceGraphic" in2="effect1_dropShadow_73_38" result="shape"/>
</filter>
<linearGradient id="paint0_linear_73_38" x1="59.5054" y1="198.618" x2="102.525" y2="160.261" gradientUnits="userSpaceOnUse">
<stop offset="0.0903266" stop-color="#162C3A"/>
<stop offset="0.995054" stop-color="#3D7AA0"/>
</linearGradient>
<linearGradient id="paint1_linear_73_38" x1="102.505" y1="199.427" x2="159.564" y2="165.511" gradientUnits="userSpaceOnUse">
<stop offset="0.0903266" stop-color="#162C3A"/>
<stop offset="0.995054" stop-color="#3D7AA0"/>
</linearGradient>
<linearGradient id="paint2_linear_73_38" x1="145.505" y1="199.81" x2="206.619" y2="168.438" gradientUnits="userSpaceOnUse">
<stop offset="0.0903266" stop-color="#162C3A"/>
<stop offset="0.995054" stop-color="#3D7AA0"/>
</linearGradient>
<linearGradient id="paint3_linear_73_38" x1="188.505" y1="199.81" x2="249.619" y2="168.438" gradientUnits="userSpaceOnUse">
<stop offset="0.0903266" stop-color="#162C3A"/>
<stop offset="0.995054" stop-color="#3D7AA0"/>
</linearGradient>
<linearGradient id="paint4_linear_73_38" x1="231.505" y1="201.045" x2="300.011" y2="176.613" gradientUnits="userSpaceOnUse">
<stop offset="0.0903266" stop-color="#162C3A"/>
<stop offset="0.995054" stop-color="#3D7AA0"/>
</linearGradient>
<linearGradient id="paint5_linear_73_38" x1="274.505" y1="201.386" x2="344.185" y2="178.465" gradientUnits="userSpaceOnUse">
<stop offset="0.0903266" stop-color="#162C3A"/>
<stop offset="0.995054" stop-color="#3D7AA0"/>
</linearGradient>
<linearGradient id="paint6_linear_73_38" x1="317.505" y1="201.811" x2="388.355" y2="180.569" gradientUnits="userSpaceOnUse">
<stop offset="0.0903266" stop-color="#162C3A"/>
<stop offset="0.995054" stop-color="#3D7AA0"/>
</linearGradient>
<clipPath id="clip0_73_38">
<rect x="356" y="65" width="100.157" height="38.4941" rx="19.247" fill="white"/>
</clipPath>
<clipPath id="clip1_73_38">
<rect x="291" width="104.157" height="38.4941" rx="19.247" fill="white"/>
</clipPath>
</defs>
</svg>
